<?xml version="1.0" standalone="no"?>
<!DOCTYPE svg PUBLIC "-//W3C//DTD SVG 20010904//EN"
 "http://www.w3.org/TR/2001/REC-SVG-20010904/DTD/svg10.dtd">
<svg version="1.0" xmlns="http://www.w3.org/2000/svg"
 width="640.000000pt" height="640.000000pt" viewBox="0 0 640.000000 640.000000"
 preserveAspectRatio="xMidYMid meet">
<metadata>
Created by potrace 1.14, written by Peter Selinger 2001-2017
</metadata>
<g transform="translate(0.000000,640.000000) scale(0.100000,-0.100000)"
fill="#000000" stroke="none">
<path d="M2618 4663 c7 -3 16 -2 19 1 4 3 -2 6 -13 5 -11 0 -14 -3 -6 -6z"/>
<path d="M3201 4574 c0 -11 3 -14 6 -6 3 7 2 16 -1 19 -3 4 -6 -2 -5 -13z"/>
<path d="M3400 4249 c-58 -26 -115 -81 -148 -144 -23 -44 -27 -61 -27 -140 l1
-90 117 -248 c64 -137 117 -253 117 -258 0 -16 45 -10 309 45 288 60 338 79
398 153 129 158 82 383 -95 452 -64 25 -162 28 -228 5 -25 -8 -47 -14 -48 -12
-1 2 -10 28 -19 59 -48 157 -232 244 -377 178z"/>
<path d="M2520 3171 c-89 -29 -141 -60 -206 -125 -102 -103 -154 -233 -154
-391 0 -184 73 -337 215 -451 81 -66 535 -425 595 -471 30 -23 80 -63 111 -87
l55 -45 380 300 c208 164 404 324 435 353 62 61 120 161 144 252 24 86 22 233
-4 314 -58 184 -201 322 -372 360 -33 7 -91 11 -140 8 -150 -9 -272 -67 -383
-182 l-60 -61 -70 70 c-78 77 -175 135 -272 160 -78 20 -205 19 -274 -4z"/>
</g>
</svg>
